<?xml version="1.0" encoding="UTF-8"?>
<svg version="1.1" xmlns="http://www.w3.org/2000/svg" width="301" height="109">
<path d="M0 0 C99.33 0 198.66 0 301 0 C301 35.97 301 71.94 301 109 C201.67 109 102.34 109 0 109 C0 73.03 0 37.06 0 0 Z " fill="#FEFEFE" transform="translate(0,0)"/>
<path d="M0 0 C8.58 0 17.16 0 26 0 C26 8.58 26 17.16 26 26 C17.75 26 9.5 26 1 26 C1 30.95 1 35.9 1 41 C4.96 41 8.92 41 13 41 C13 45.29 13 49.58 13 54 C8.71 54 4.42 54 0 54 C0 49.71 0 45.42 0 41 C-5.28 41 -10.56 41 -16 41 C-16 35.72 -16 30.44 -16 25 C-10.72 25 -5.44 25 0 25 C0 16.75 0 8.5 0 0 Z " fill="#03989E" transform="translate(39,18)"/>
<path d="M0 0 C8.58 0 17.16 0 26 0 C26 8.58 26 17.16 26 26 C17.75 26 9.5 26 1 26 C1 30.95 1 35.9 1 41 C4.96 41 8.92 41 13 41 C13 45.29 13 49.58 13 54 C8.71 54 4.42 54 0 54 C0 49.71 0 45.42 0 41 C-5.28 41 -10.56 41 -16 41 C-16 35.72 -16 30.44 -16 25 C-10.72 25 -5.44 25 0 25 C0 16.75 0 8.5 0 0 Z M1 1 C1 8.92 1 16.84 1 25 C8.92 25 16.84 25 25 25 C25 17.08 25 9.16 25 1 C17.08 1 9.16 1 1 1 Z " fill="#7CC9CD" transform="translate(39,18)"/>
<path d="M0 0 C1.98 0 3.96 0 6 0 C6.33 2.97 6.66 5.94 7 9 C7.66 8.67 8.32 8.34 9 8 C14.69130337 7.45275929 17.56117185 8.40666293 22 12 C23.85726616 15.71453232 23.58501089 19.95579425 23 24 C20.80977082 26.82424288 19.16982793 28.41508603 16 30 C13.66705225 30.04241723 11.33297433 30.04092937 9 30 C8.01 30 7.02 30 6 30 C4.02 30 2.04 30 0 30 C0 20.1 0 10.2 0 0 Z " fill="#099AA0" transform="translate(256,46)"/>
<path d="M0 0 C0.639375 0.33 1.27875 0.66 1.9375 1 C1.6075 2.65 1.2775 4.3 0.9375 6 C0.16664062 5.9278125 -0.60421875 5.855625 -1.3984375 5.78125 C-2.40132812 5.6884375 -3.40421875 5.595625 -4.4375 5.5 C-5.93410156 5.36078125 -5.93410156 5.36078125 -7.4609375 5.21875 C-9.95953736 4.97207053 -9.95953736 4.97207053 -12.0625 5 C-12.06662113 6.96843028 -12.06662113 6.96843028 -11.0625 9 C-8.12327121 10.26327444 -8.12327121 10.26327444 -4.625 11.0625 C1.72929532 12.68769299 1.72929532 12.68769299 3.9375 16 C3.71527778 22.22222222 3.71527778 22.22222222 1.0625 24.875 C-3.84669246 27.47398424 -8.62551241 27.51945741 -14.0625 27 C-17.1875 25.5 -17.1875 25.5 -19.0625 24 C-18.7325 22.68 -18.4025 21.36 -18.0625 20 C-17.14726563 20.0721875 -16.23203125 20.144375 -15.2890625 20.21875 C-14.10054688 20.3115625 -12.91203125 20.404375 -11.6875 20.5 C-9.91246094 20.63921875 -9.91246094 20.63921875 -8.1015625 20.78125 C-6.42463157 20.90195454 -4.74376944 21 -3.0625 21 C-3.0625 19.68 -3.0625 18.36 -3.0625 17 C-3.88234375 16.82984375 -4.7021875 16.6596875 -5.546875 16.484375 C-6.62453125 16.24203125 -7.7021875 15.9996875 -8.8125 15.75 C-9.87984375 15.51796875 -10.9471875 15.2859375 -12.046875 15.046875 C-15.37900551 13.89012503 -16.88829412 12.74745256 -19.0625 10 C-19.625 7 -19.625 7 -19.0625 4 C-13.41243573 -1.50137837 -7.45686964 -2.43489621 0 0 Z " fill="#0E9CA2" transform="translate(80.0625,49)"/>
<path d="M0 0 C0.7425 0.556875 1.485 1.11375 2.25 1.6875 C3.1471875 2.30625 3.1471875 2.30625 4.0625 2.9375 C5.25 4.6875 5.25 4.6875 5.25 11.6875 C-0.03 11.6875 -5.31 11.6875 -10.75 11.6875 C-9.76 12.6775 -8.77 13.6675 -7.75 14.6875 C-5.54641154 14.68325709 -5.54641154 14.68325709 -3.25 14.125 C-0.84765625 13.75 -0.84765625 13.75 1.25 13.6875 C3.3125 15.625 3.3125 15.625 4.25 17.6875 C-0.46198821 20.51469292 -4.35101206 21.67695596 -9.75 20.6875 C-13.50212276 18.67247111 -15.38644095 17.23283858 -17.75 13.6875 C-18.23256365 9.42485442 -18.01873267 7.19617256 -16 3.375 C-11.63270565 -1.84149048 -6.36669187 -3.03864839 0 0 Z " fill="#0E9CA2" transform="translate(105.75,55.3125)"/>
<path d="M0 0 C2.34241108 1.82187528 3.83284402 3.13944951 5.25 5.75 C5.25 7.73 5.25 9.71 5.25 11.75 C-0.03 11.75 -5.31 11.75 -10.75 11.75 C-8.19003678 14.99349822 -8.19003678 14.99349822 -5.48828125 14.82421875 C-4.68777344 14.69660156 -3.88726562 14.56898437 -3.0625 14.4375 C-1.85013672 14.25767578 -1.85013672 14.25767578 -0.61328125 14.07421875 C0.00160156 13.96722656 0.61648437 13.86023438 1.25 13.75 C1.91 15.07 2.57 16.39 3.25 17.75 C-0.33199855 20.43649891 -3.24819274 21.2843345 -7.75390625 21.10546875 C-11.81926667 20.38150046 -14.6724266 18.17043766 -17.125 14.9375 C-18.05178233 11.69376185 -18.10340896 9.10738508 -17.75 5.75 C-13.55689106 -0.98892509 -7.56267012 -3.43757733 0 0 Z " fill="#0D9CA1" transform="translate(147.75,55.25)"/>
<path d="M0 0 C2.5625 1.625 2.5625 1.625 3.5625 3.625 C3.63444869 6.50870333 3.65541708 9.36739664 3.625 12.25 C3.62048828 13.05179688 3.61597656 13.85359375 3.61132812 14.6796875 C3.59953168 16.66149006 3.58159605 18.64325433 3.5625 20.625 C0.5625 20.625 -2.4375 20.625 -5.4375 20.625 C-6.571875 20.686875 -7.70625 20.74875 -8.875 20.8125 C-12.4375 20.625 -12.4375 20.625 -14.875 19.5625 C-16.4375 17.625 -16.4375 17.625 -16.9375 14.125 C-16.4375 10.625 -16.4375 10.625 -14.734375 8.91796875 C-11.9842664 7.3698634 -10.31808752 7.31392418 -7.1875 7.4375 C-5.84945312 7.47810547 -5.84945312 7.47810547 -4.484375 7.51953125 C-3.80890625 7.55433594 -3.1334375 7.58914062 -2.4375 7.625 C-3.63617267 6.0079533 -3.63617267 6.0079533 -5.4375 4.625 C-7.73594789 4.47797733 -7.73594789 4.47797733 -10.125 4.9375 C-10.93324219 5.05738281 -11.74148437 5.17726563 -12.57421875 5.30078125 C-13.18910156 5.40777344 -13.80398437 5.51476563 -14.4375 5.625 C-14.7675 3.975 -15.0975 2.325 -15.4375 0.625 C-10.52782702 -2.64811532 -5.19656598 -2.07862639 0 0 Z " fill="#0C9CA1" transform="translate(244.4375,55.375)"/>
<path d="M0 0 C1.98 0 3.96 0 6 0 C6 0.66 6 1.32 6 2 C6.515625 1.67 7.03125 1.34 7.5625 1 C10.9260416 -0.3799145 13.39238959 -0.37974846 17 0 C19.703125 1.4453125 19.703125 1.4453125 22 4 C22.613968 7.10480571 22.47242513 10.10070517 22.3125 13.25 C22.28994141 14.09046875 22.26738281 14.9309375 22.24414062 15.796875 C22.18537714 17.86534964 22.09569885 19.93290488 22 22 C20.02 22 18.04 22 16 22 C15.67 17.05 15.34 12.1 15 7 C10.39467611 5.54685336 10.39467611 5.54685336 8 7 C7.68758629 9.54941373 7.48696579 12.00361513 7.375 14.5625 C7.33632812 15.27341797 7.29765625 15.98433594 7.2578125 16.71679688 C7.16328217 18.47742425 7.08054183 20.23867728 7 22 C4.69 22 2.38 22 0 22 C0 14.74 0 7.48 0 0 Z " fill="#119DA3" transform="translate(159,54)"/>
<path d="M0 0 C1.98 0 3.96 0 6 0 C6 7.59 6 15.18 6 23 C10.95 23 15.9 23 21 23 C21 24.65 21 26.3 21 28 C14.07 28 7.14 28 0 28 C0 18.76 0 9.52 0 0 Z " fill="#06999F" transform="translate(203,48)"/>
<path d="M0 0 C4.95 0 9.9 0 15 0 C15 4.95 15 9.9 15 15 C10.05 15 5.1 15 0 15 C0 10.05 0 5.1 0 0 Z " fill="#03989E" transform="translate(24,44)"/>
<path d="M0 0 C2.31 0 4.62 0 7 0 C7 9.9 7 19.8 7 30 C4.69 30 2.38 30 0 30 C0 20.1 0 10.2 0 0 Z " fill="#1BA2A7" transform="translate(117,46)"/>
<path d="M0 0 C3.96 0 7.92 0 12 0 C12 3.96 12 7.92 12 12 C8.04 12 4.08 12 0 12 C0 8.04 0 4.08 0 0 Z " fill="#089AA0" transform="translate(40,59)"/>
<path d="M0 0 C1.8125 1.125 1.8125 1.125 3 3 C3.39769128 6.18153026 3.55198782 8.12844028 1.8125 10.875 C-0.65507108 12.40659584 -2.14519831 12.42822025 -5 12 C-6.8125 10.875 -6.8125 10.875 -8 9 C-8.39769128 5.81846974 -8.55198782 3.87155972 -6.8125 1.125 C-4.34492892 -0.40659584 -2.85480169 -0.42822025 0 0 Z " fill="#F0F9F9" transform="translate(270,59)"/>
<path d="M0 0 C1.134375 0.020625 2.26875 0.04125 3.4375 0.0625 C2.5625 3.9375 2.5625 3.9375 1.4375 5.0625 C-0.22867115 5.10313832 -1.89638095 5.105221 -3.5625 5.0625 C-4.125 3.125 -4.125 3.125 -4.5625 1.0625 C-3.5625 0.0625 -3.5625 0.0625 0 0 Z " fill="#F1F9F9" transform="translate(238.5625,66.9375)"/>
<path d="M0 0 C2.31 0.33 4.62 0.66 7 1 C7.33 1.99 7.66 2.98 8 4 C4.37 4 0.74 4 -3 4 C-2.01 2.68 -1.02 1.36 0 0 Z " fill="#EAF6F7" transform="translate(139,59)"/>
<path d="M0 0 C2.31 0.33 4.62 0.66 7 1 C7.33 1.99 7.66 2.98 8 4 C4.7 4 1.4 4 -2 4 C-1.34 2.68 -0.68 1.36 0 0 Z " fill="#EEF8F8" transform="translate(97,59)"/>
</svg>
